<svg width="87" height="23" viewBox="0 0 87 23" fill="none" xmlns="http://www.w3.org/2000/svg">
<path d="M6.95955 3.75598C3.62755 3.75598 1.38755 5.35198 1.38755 8.31998C1.38755 10.2814 2.28874 11.4742 3.88481 12.1821C3.9284 12.2014 3.92428 12.2666 3.87872 12.2807C2.52373 12.7 1.94755 13.7011 1.94755 14.676C1.94755 15.6046 2.44802 16.437 3.33724 16.7582C3.39504 16.7791 3.38659 16.9473 3.32586 16.9568C1.46671 17.2456 0.547546 18.1835 0.547546 19.604C0.547546 22.152 3.37555 22.908 6.45555 22.908C10.0675 22.908 13.8195 21.984 13.8195 18.372C13.8195 16.104 12.1955 14.648 9.25555 14.648H5.75555C4.99955 14.648 4.60755 14.312 4.60755 13.752C4.60755 13.3097 4.77126 12.922 5.28724 12.6159C5.29997 12.6083 5.31539 12.6069 5.32939 12.6117C5.64645 12.7198 6.30173 12.8 6.90355 12.8C10.0675 12.8 12.6435 11.316 12.6435 8.31998C12.6435 7.45121 12.4593 6.66141 12.0907 6.05268C12.0735 6.02415 12.0875 5.98672 12.1194 5.97685C13.1504 5.65773 14.164 4.84088 14.3187 3.62831C14.3217 3.60492 14.3076 3.58265 14.2852 3.5752L11.6881 2.70951C11.66 2.70013 11.6299 2.71754 11.6234 2.74646C11.4088 3.70055 11.2385 4.14269 10.6834 4.62791C10.667 4.64223 10.6431 4.64423 10.6245 4.63294C9.67619 4.05733 8.42745 3.75598 6.95955 3.75598ZM3.62755 19.044C3.62755 18.092 4.49555 17.644 5.81155 17.644H8.86355C10.1795 17.644 10.6555 18.092 10.6555 18.932C10.6555 20.164 9.45155 20.64 6.81955 20.64C4.83155 20.64 3.62755 20.164 3.62755 19.044ZM4.74755 8.31998C4.74755 6.89198 5.53155 6.07998 6.95955 6.07998C8.38755 6.05198 9.22755 6.80798 9.22755 8.31998C9.22755 9.77598 8.38755 10.56 6.95955 10.56C5.50355 10.56 4.74755 9.63598 4.74755 8.31998Z" fill="#333333"/>
<path d="M24.5135 3.83573C24.516 3.80748 24.4938 3.78269 24.4655 3.78139C21.4168 3.64086 20.0152 5.19646 19.4376 7.31031C19.4228 7.36449 19.3403 7.35922 19.3341 7.3034L18.9791 4.10846C18.9763 4.08314 18.9549 4.06398 18.9294 4.06398H16.1402C16.1126 4.06398 16.0902 4.08636 16.0902 4.11398V16.95C16.0902 16.9776 16.1126 17 16.1402 17H19.3722C19.3998 17 19.4222 16.9776 19.4222 16.95V10.868C19.4222 8.26398 21.2422 7.31198 22.8382 7.31198C23.3459 7.31198 23.7261 7.36298 24.1248 7.46498C24.1548 7.47266 24.1847 7.45178 24.1875 7.42091L24.5135 3.83573Z" fill="#333333"/>
<path d="M31.6087 17.336C35.3047 17.336 37.7407 14.872 37.7407 10.476C37.7407 6.07998 35.3047 3.75598 31.6087 3.75598C27.9127 3.75598 25.4767 6.07998 25.4767 10.476C25.4767 14.872 27.9127 17.336 31.6087 17.336ZM31.6087 6.44398C33.5127 6.44398 34.4647 7.73198 34.4647 10.504C34.4647 13.36 33.5407 14.732 31.6087 14.732C29.7047 14.732 28.7807 13.36 28.7807 10.504C28.7807 7.73198 29.7327 6.44398 31.6087 6.44398Z" fill="#333333"/>
<path d="M48.2573 12.7311C48.2296 12.7229 48.2007 12.7404 48.194 12.7685C47.8508 14.2125 47.0445 14.732 45.9102 14.732C44.0902 14.732 42.9982 13.108 42.9982 10.56C42.9982 8.03998 43.9782 6.41598 45.8542 6.41598C47.1534 6.41598 47.8522 7.20743 48.0854 8.62867C48.0902 8.65798 48.1192 8.67735 48.1479 8.66975L50.9104 7.93851C50.9335 7.93239 50.9491 7.91042 50.9473 7.88658C50.7617 5.33489 48.8622 3.75598 45.9102 3.75598C42.1862 3.75598 39.7502 6.27598 39.7502 10.588C39.7502 14.9 42.1862 17.336 45.8262 17.336C48.4709 17.336 50.6451 16.2011 51.1378 13.6286C51.1426 13.6035 51.1276 13.5785 51.1031 13.5713L48.2573 12.7311Z" fill="#333333"/>
<path d="M60.0171 12.996C60.0171 14.34 58.7291 14.928 57.6371 14.928C56.5731 14.928 55.9851 14.312 55.9851 13.444C55.9851 12.1354 57.0925 11.4083 59.9678 11.4826C59.9948 11.4833 60.0171 11.5055 60.0171 11.5326V12.996ZM63.3491 7.92798C63.3491 5.01598 61.3891 3.75598 58.4211 3.75598C55.6645 3.75598 53.3232 4.919 53.1046 7.63057C53.1025 7.65605 53.1202 7.6794 53.1454 7.68392L56.3222 8.25412C56.3515 8.25938 56.3789 8.23768 56.3814 8.208C56.48 7.00996 57.0951 6.30398 58.2531 6.30398C59.4011 6.30398 60.0171 6.97598 60.0171 8.23598V9.55514C60.0171 9.58384 59.9922 9.6066 59.9635 9.60508C54.9329 9.33927 52.6531 10.9342 52.6531 13.808C52.6531 16.02 54.1931 17.336 56.4891 17.336C58.1426 17.336 59.5599 16.8112 60.2076 15.3297C60.2273 15.2846 60.2963 15.2896 60.3097 15.3369C60.6814 16.6532 61.6729 17.224 63.2091 17.224C63.9796 17.224 64.5879 17.1158 65.0604 16.8463C65.0758 16.8375 65.0851 16.8211 65.0851 16.8034V14.4449C65.0851 14.4087 65.0479 14.3845 65.0147 14.3988C64.7902 14.495 64.5802 14.564 64.3011 14.564C63.7411 14.564 63.3491 14.284 63.3491 13.36V7.92798Z" fill="#333333"/>
<path d="M75.8924 3.83573C75.8949 3.80748 75.8727 3.78269 75.8444 3.78139C72.7957 3.64086 71.3941 5.19646 70.8165 7.31031C70.8017 7.36449 70.7192 7.35922 70.713 7.3034L70.358 4.10846C70.3552 4.08314 70.3338 4.06398 70.3083 4.06398H67.5191C67.4915 4.06398 67.4691 4.08636 67.4691 4.11398V16.95C67.4691 16.9776 67.4915 17 67.5191 17H70.7511C70.7787 17 70.8011 16.9776 70.8011 16.95V10.868C70.8011 8.26398 72.6211 7.31198 74.2171 7.31198C74.7248 7.31198 75.105 7.36298 75.5037 7.46498C75.5337 7.47266 75.5636 7.45178 75.5665 7.42091L75.8924 3.83573Z" fill="#333333"/>
<path d="M85.6523 13.7963C85.6451 13.7617 85.605 13.7454 85.5754 13.7647C84.8443 14.2416 84.187 14.48 83.3971 14.48C82.3611 14.48 81.7731 14.004 81.7731 12.604V6.71798C81.7731 6.69036 81.7955 6.66798 81.8231 6.66798H85.5871C85.6148 6.66798 85.6371 6.64559 85.6371 6.61798V4.11398C85.6371 4.08636 85.6148 4.06398 85.5871 4.06398H81.8511C81.8235 4.06398 81.8011 4.04159 81.8011 4.01398V0.984206C81.8011 0.954276 81.775 0.931051 81.7453 0.934548L78.5133 1.31478C78.4881 1.31775 78.4691 1.33909 78.4691 1.36444V4.01398C78.4691 4.04159 78.4468 4.06398 78.4191 4.06398H76.6151C76.5875 4.06398 76.5651 4.08636 76.5651 4.11398V6.61798C76.5651 6.64559 76.5875 6.66798 76.6151 6.66798H78.3911C78.4188 6.66798 78.4411 6.69036 78.4411 6.71798V13.332C78.4411 16.132 80.0371 17.336 82.5291 17.336C83.9414 17.336 85.1894 17.0621 86.1918 16.5414C86.2116 16.5311 86.222 16.5089 86.2174 16.4871L85.6523 13.7963Z" fill="#333333"/>
</svg>
