<svg width="14" height="14" viewBox="0 0 14 14" fill="none" xmlns="http://www.w3.org/2000/svg">
<path d="M7.00002 12.8334C10.1623 12.8334 12.8334 10.1623 12.8334 7.00007C12.8334 3.83782 10.1623 1.16673 7.00002 1.16673C3.83777 1.16673 1.16669 3.83782 1.16669 7.00007C1.16669 10.1623 3.83777 12.8334 7.00002 12.8334ZM7.00002 2.3334C9.52994 2.3334 11.6667 4.47015 11.6667 7.00007C11.6667 9.52998 9.52994 11.6667 7.00002 11.6667C4.4701 11.6667 2.33335 9.52998 2.33335 7.00007C2.33335 4.47015 4.4701 2.3334 7.00002 2.3334Z" fill="#999999"/>
<path d="M6.99998 9.9166C7.52556 9.9166 8.50556 9.8186 9.16239 9.16293L8.33756 8.33693C8.07915 8.59535 7.57865 8.74993 6.99998 8.74993C6.05148 8.74993 5.24998 7.94843 5.24998 6.99993C5.24998 6.05143 6.05148 5.24993 6.99998 5.24993C7.57923 5.24993 8.07973 5.40452 8.33756 5.66235L9.16239 4.83752C8.50614 4.18127 7.52556 4.08327 6.99998 4.08327C5.39173 4.08327 4.08331 5.39168 4.08331 6.99993C4.08331 8.60818 5.39173 9.9166 6.99998 9.9166Z" fill="#999999"/>
</svg>
