<svg width="70" height="18" viewBox="0 0 70 18" fill="none" xmlns="http://www.w3.org/2000/svg">
<path d="M5.23871 2.31052C2.51641 2.31052 0.686294 3.61448 0.686294 6.03939C0.686294 7.6319 1.41339 8.60425 2.70218 9.18386C2.74567 9.20342 2.74127 9.26896 2.69583 9.28345C1.60726 9.63072 1.14382 10.4421 1.14382 11.2323C1.14382 11.9539 1.5137 12.6044 2.17494 12.8921C2.23129 12.9166 2.21923 13.1035 2.15871 13.1143C0.714311 13.3699 0 14.1267 0 15.2586C0 17.3404 2.31052 17.958 4.82693 17.958C7.778 17.958 10.8434 17.2031 10.8434 14.252C10.8434 12.399 9.51661 11.2095 7.11458 11.2095H4.25502C3.63736 11.2095 3.31709 10.9349 3.31709 10.4774C3.31709 10.1171 3.45007 9.8012 3.86874 9.55139C3.88144 9.54381 3.89694 9.54245 3.91097 9.54716C4.17154 9.6348 4.70385 9.69962 5.19296 9.69962C7.778 9.69962 9.88263 8.48717 9.88263 6.03939C9.88263 5.33455 9.73418 4.69333 9.43727 4.19742C9.42014 4.1688 9.43425 4.13137 9.46607 4.12137C10.3023 3.85876 11.1213 3.19563 11.2503 2.21356C11.2534 2.19019 11.2392 2.16794 11.2169 2.16048L9.11167 1.45875C9.08354 1.44937 9.05343 1.46665 9.04691 1.49558C8.87332 2.26542 8.73378 2.62547 8.28614 3.01851C8.26979 3.03286 8.24591 3.03481 8.22729 3.02356C7.45324 2.55553 6.43506 2.31052 5.23871 2.31052ZM2.51641 14.8011C2.51641 14.0233 3.22558 13.6572 4.30077 13.6572H6.79431C7.8695 13.6572 8.2584 14.0233 8.2584 14.7096C8.2584 15.7161 7.27471 16.105 5.12433 16.105C3.5001 16.105 2.51641 15.7161 2.51641 14.8011ZM3.43147 6.03939C3.43147 4.87269 4.07201 4.20927 5.23871 4.20927C6.40541 4.18639 7.0917 4.80406 7.0917 6.03939C7.0917 7.22896 6.40541 7.8695 5.23871 7.8695C4.04913 7.8695 3.43147 7.11458 3.43147 6.03939Z" fill="#333333"/>
<path d="M19.5797 2.38515C19.5823 2.3569 19.5601 2.33211 19.5317 2.33085C17.0722 2.22084 15.9276 3.46458 15.4477 5.16327C15.4324 5.21732 15.3493 5.21184 15.3431 5.15602L15.0598 2.60664C15.057 2.58132 15.0356 2.56216 15.0101 2.56216H12.7486C12.721 2.56216 12.6986 2.58455 12.6986 2.61216V13.0811C12.6986 13.1087 12.721 13.1311 12.7486 13.1311H15.3709C15.3985 13.1311 15.4209 13.1087 15.4209 13.0811V8.12114C15.4209 5.99363 16.9078 5.21583 18.2118 5.21583C18.6221 5.21583 18.9305 5.25661 19.2525 5.33816C19.2825 5.34577 19.3124 5.32489 19.3152 5.29402L19.5797 2.38515Z" fill="#333333"/>
<path d="M25.3775 13.4056C28.3972 13.4056 30.3874 11.3925 30.3874 7.80087C30.3874 4.20927 28.3972 2.31052 25.3775 2.31052C22.3578 2.31052 20.3676 4.20927 20.3676 7.80087C20.3676 11.3925 22.3578 13.4056 25.3775 13.4056ZM25.3775 4.50666C26.9331 4.50666 27.7109 5.55898 27.7109 7.82375C27.7109 10.1571 26.956 11.2781 25.3775 11.2781C23.8219 11.2781 23.067 10.1571 23.067 7.82375C23.067 5.55898 23.8448 4.50666 25.3775 4.50666Z" fill="#333333"/>
<path d="M38.989 9.64609C38.9613 9.63791 38.9324 9.65531 38.9257 9.68339C38.644 10.856 37.9863 11.2781 37.062 11.2781C35.575 11.2781 34.6829 9.95126 34.6829 7.8695C34.6829 5.81062 35.4835 4.48379 37.0163 4.48379C38.0747 4.48379 38.6454 5.12668 38.8375 6.28154C38.8424 6.31084 38.8714 6.33015 38.9001 6.32255L41.14 5.72964C41.1631 5.72353 41.1787 5.70157 41.1769 5.67773C41.022 3.5974 39.471 2.31052 37.062 2.31052C34.0194 2.31052 32.0292 4.3694 32.0292 7.89238C32.0292 11.4154 34.0194 13.4056 36.9934 13.4056C39.1514 13.4056 40.9259 12.4808 41.3315 10.3848C41.3364 10.3597 41.3213 10.3347 41.2968 10.3274L38.989 9.64609Z" fill="#333333"/>
<path d="M48.5876 9.85975C48.5876 10.9578 47.5353 11.4382 46.6431 11.4382C45.7738 11.4382 45.2934 10.9349 45.2934 10.2258C45.2934 9.15804 46.1958 8.56407 48.5383 8.62309C48.5654 8.62377 48.5876 8.64595 48.5876 8.673V9.85975ZM51.3099 5.71911C51.3099 3.33996 49.7086 2.31052 47.2837 2.31052C45.0342 2.31052 43.1233 3.25836 42.9406 5.46785C42.9385 5.49333 42.9562 5.51665 42.9814 5.52117L45.5588 5.98377C45.5881 5.98903 45.6154 5.9674 45.618 5.93773C45.7013 4.96508 46.2035 4.39228 47.1464 4.39228C48.0843 4.39228 48.5876 4.94131 48.5876 5.97076V7.03886C48.5876 7.06756 48.5627 7.09032 48.5341 7.08882C44.4308 6.87423 42.5711 8.17708 42.5711 10.5232C42.5711 12.3304 43.8293 13.4056 45.7052 13.4056C47.0459 13.4056 48.1966 12.9833 48.7311 11.7937C48.7513 11.7488 48.821 11.7537 48.8349 11.8009C49.1448 12.856 49.9516 13.3141 51.1955 13.3141C51.8226 13.3141 52.3181 13.2264 52.7035 13.0081C52.7189 12.9994 52.7283 12.9829 52.7283 12.9652V11.0576C52.7283 11.0215 52.691 10.9973 52.6577 11.0114C52.4792 11.0871 52.3103 11.1408 52.0877 11.1408C51.6302 11.1408 51.3099 10.9121 51.3099 10.1571V5.71911Z" fill="#333333"/>
<path d="M61.5571 2.38515C61.5597 2.3569 61.5375 2.33211 61.5091 2.33085C59.0496 2.22084 57.905 3.46458 57.4251 5.16327C57.4098 5.21732 57.3267 5.21184 57.3205 5.15602L57.0372 2.60664C57.0344 2.58132 57.013 2.56216 56.9875 2.56216H54.726C54.6984 2.56216 54.676 2.58455 54.676 2.61216V13.0811C54.676 13.1087 54.6984 13.1311 54.726 13.1311H57.3483C57.3759 13.1311 57.3983 13.1087 57.3983 13.0811V8.12114C57.3983 5.99363 58.8853 5.21583 60.1892 5.21583C60.5995 5.21583 60.9079 5.25661 61.2299 5.33816C61.2599 5.34577 61.2898 5.32489 61.2927 5.29402L61.5571 2.38515Z" fill="#333333"/>
<path d="M69.5348 10.5269C69.5275 10.4922 69.4875 10.4759 69.4578 10.4952C68.8651 10.8799 68.3307 11.0722 67.6895 11.0722C66.843 11.0722 66.3626 10.6833 66.3626 9.53948V4.73967C66.3626 4.71206 66.385 4.68967 66.4126 4.68967H69.4696C69.4972 4.68967 69.5196 4.66729 69.5196 4.63967V2.61216C69.5196 2.58455 69.4972 2.56216 69.4696 2.56216H66.4355C66.4079 2.56216 66.3855 2.53978 66.3855 2.51216V0.0562271C66.3855 0.0262975 66.3594 0.00307263 66.3297 0.00656965L63.7074 0.315075C63.6822 0.318038 63.6632 0.339379 63.6632 0.364733V2.51216C63.6632 2.53978 63.6408 2.56216 63.6132 2.56216H62.1576C62.13 2.56216 62.1076 2.58455 62.1076 2.61216V4.63967C62.1076 4.66729 62.13 4.68967 62.1576 4.68967H63.5903C63.618 4.68967 63.6403 4.71206 63.6403 4.73967V10.1343C63.6403 12.4219 64.9443 13.4056 66.9803 13.4056C68.1313 13.4056 69.1487 13.183 69.9666 12.7596C69.9865 12.7494 69.9968 12.7271 69.9923 12.7053L69.5348 10.5269Z" fill="#333333"/>
</svg>
